{"title":"Banjo.2016.DESiSCR.XviD.1CD.MP3-Team IcTv Exclusive","uid":15885635,"size":724973413,"categoryP":"video","categoryS":"movies","magnet":"?xt=urn:btih:f01fcad927ccd635fc0e2fd9bc54c822ca078def&amp;dn=Banjo.2016.DESiSCR.XviD.1CD.MP3-Team+IcTv+Exclusive&amp;tr=udp%3A%2F%2Ftracker.leechers-paradise.org%3A6969&amp;tr=udp%3A%2F%2Fzer0day.ch%3A1337&amp;tr=udp%3A%2F%2Fopen.demonii.com%3A1337&amp;tr=udp%3A%2F%2Ftracker.coppersurfer.tk%3A6969&amp;tr=udp%3A%2F%2Fexodus.desync.com%3A6969","seeders":2,"leechers":2,"uploader":"CDRiPD","files":3,"time":1474649489,"description":"Banjo.2016.DESiSCR.XviD.1CD.MP3-Team IcTv Exclusive\r\n\r\n\r\nFormat                                   : AVI\r\nFormat/Info                              : Audio Video Interleave\r\nFile size                                : 691 MiB\r\nDuration                                 : 2h 15mn\r\nOverall bit rate                         : 714 Kbps\r\n\r\nVideo\r\nID                                       : 0\r\nFormat                                   : MPEG-4 Visual\r\nFormat profile                           : Advanced   \r\nFormat settings, BVOP                    : 2\r\nFormat settings, QPel                    : No\r\nFormat settings, GMC                     : No warppoints\r\nFormat settings, Matrix                  : Default (H.263)\r\nCodec ID                                 : XVID\r\nCodec ID/Hint                            : XviD\r\nDuration                                 : 2h 15mn\r\nBit rate                                 : 668 Kbps\r\nWidth                                    : 640 pixels\r\nHeight                                   : 272 pixels\r\nDisplay aspect ratio                     : 2.35:1\r\nFrame rate                               : 25.000 fps\r\nColor space                              : YUV\r\nChroma subsampling                       : 4:2:0\r\nBit depth                                : 8 bits\r\nScan type                                : Progressive\r\nCompression mode                         : Lossy\r\nBits/(Pixel*Frame)                       : 0.153\r\nStream size                              : 647 MiB (94%)\r\nWriting library                          : XviD 67\r\n\r\nAudio\r\nID                                       : 1\r\nFormat                                   : MPEG Audio\r\nFormat version                           : Version 2\r\nFormat profile                           : Layer 3\r\nMode                                     : Joint stereo\r\nMode extension                           : MS Stereo\r\nCodec ID                                 : 55\r\nCodec ID/Hint                            : MP3\r\nDuration                                 : 2h 15mn\r\nBit rate mode                            : Constant\r\nBit rate                                 : 40.0 Kbps\r\nChannel(s)                               : 2 channels\r\nSampling rate                            : 16.0 KHz\r\nCompression mode                         : Lossy\r\nStream size                              : 38.7 MiB (6%)\r\n\r\nLanguage                                 : Hindi\r\n\r\nScreen:\r\n\r\n \nhttps://ititli.com/XD6 \nhttps://ititli.com/XD8 \nhttps://ititli.com/XDe \nhttps://ititli.com/XDj \nhttps://ititli.com/XDk \nhttps://ititli.com/XDo \nhttps://ititli.com/XDG \nhttps://ititli.com/XDH \nhttps://ititli.com/XDM","torrent":{"xt":"urn:btih:f01fcad927ccd635fc0e2fd9bc54c822ca078def","amp;dn":"Banjo.2016.DESiSCR.XviD.1CD.MP3-Team+IcTv+Exclusive","amp;tr":["udp%3A%2F%2Ftracker.leechers-paradise.org%3A6969","udp%3A%2F%2Fzer0day.ch%3A1337","udp%3A%2F%2Fopen.demonii.com%3A1337","udp%3A%2F%2Ftracker.coppersurfer.tk%3A6969","udp%3A%2F%2Fexodus.desync.com%3A6969"],"infoHash":"f01fcad927ccd635fc0e2fd9bc54c822ca078def","infoHashBuffer":{"type":"Buffer","data":[240,31,202,217,39,204,214,53,252,14,47,217,188,84,200,34,202,7,141,239]},"announce":[],"urlList":[]}}